<?xml version="1.0" encoding="utf-8"?>
<!-- Generator: Adobe Illustrator 27.5.0, SVG Export Plug-In . SVG Version: 6.00 Build 0)  -->
<svg version="1.1" xmlns="http://www.w3.org/2000/svg" xmlns:xlink="http://www.w3.org/1999/xlink" x="0px" y="0px"
	 viewBox="2399.047 -1875.171 4554.651 3588.58" style="enable-background:new 2399.047 -1875.171 4554.651 3588.58;"
	 xml:space="preserve">
<g id="Layer_1">
</g>
<g id="Layer_2">
</g>
<g id="Dimensions">
	<rect x="2399.047" y="-1875.171" style="fill:#FFFFFF;" width="4554.651" height="3588.58"/>
	<rect x="4676.373" y="-1875.171" width="2277.326" height="3588.58"/>
	<g>
		<path style="fill-rule:evenodd;clip-rule:evenodd;fill:#FF0013;" d="M3634.35,85.4
			c-375.045-1017.165,47.874,175.872-301.293,531.463c199.65-42.805,251.235-311.593,271.542-484.056
			c31.833,40.218,71.071,71.573,118.695,82.756c-28.968-10.517-59.541-50.426-88.941-130.16L3634.35,85.4z"/>
		<path style="fill-rule:evenodd;clip-rule:evenodd;fill:#FC3030;" d="M3703.813-520.43
			c255.425,125.409,168.882,739.824,35.054,738.872c21.414,2.92,44.424,1.826,69.106-4.2
			c218.656-53.381,219.083-450.482,174.175-616.543c-116.546-430.971-608.846-308.155-768.731-12.301
			c151.964-146.983,381.317-173.161,490.395-105.823L3703.813-520.43z"/>
		<path style="fill-rule:evenodd;clip-rule:evenodd;fill:#FF0013;" d="M3738.867,218.442
			c128.834,0.921,213.846-568.471-7.881-722.849c139.865,174.46,7.352,630.389-115.625,538.358
			c6.088,16.482,12.415,33.628,18.987,51.446c29.4,79.733,59.974,119.643,88.941,130.16c5.094,1.197,10.29,2.163,15.576,2.882
			L3738.867,218.442z"/>
		<path style="fill-rule:evenodd;clip-rule:evenodd;fill:#FC3030;" d="M3333.054,616.859
			c324.718-330.689-18.308-1385.656,233.709-713.672c-348.375-980.253-37.795,184.489-236.41,714.256
			C3331.268,617.244,3332.171,617.048,3333.054,616.859z"/>
		<path style="fill-rule:evenodd;clip-rule:evenodd;fill:#FC3030;" d="M3782.626-188.465
			c18.323-113.338,8.628-240.768-51.637-315.944c-8.594-5.984-17.647-11.342-27.176-16.021
			c-79.082-48.818-221.376-48.486-351.57,11.399c218.856-91.447,409.779,73.029,430.455,262.877
			C3784.749-227.33,3784.603-207.916,3782.626-188.465z"/>
		<linearGradient id="SVGID_1_" gradientUnits="userSpaceOnUse" x1="3557.5066" y1="154.8134" x2="3940.3774" y2="-434.7402">
			<stop  offset="0" style="stop-color:#000000"/>
			<stop  offset="0.1737" style="stop-color:#474747"/>
			<stop  offset="0.3508" style="stop-color:#878787"/>
			<stop  offset="0.5121" style="stop-color:#BBBBBB"/>
			<stop  offset="0.6517" style="stop-color:#E0E0E0"/>
			<stop  offset="0.7642" style="stop-color:#F7F7F7"/>
			<stop  offset="0.8354" style="stop-color:#FFFFFF"/>
		</linearGradient>
		<path style="fill-rule:evenodd;clip-rule:evenodd;fill:url(#SVGID_1_);" d="M3738.867,218.442
			c128.834,0.921,213.846-568.471-7.881-722.849c139.865,174.46,7.352,630.389-115.625,538.358
			c6.088,16.482,12.415,33.628,18.987,51.446c29.4,79.733,59.974,119.643,88.941,130.16c5.094,1.197,10.29,2.163,15.576,2.882
			L3738.867,218.442z"/>
		
			<linearGradient id="SVGID_00000021817415445781163330000003579745800966842265_" gradientUnits="userSpaceOnUse" x1="3386.1565" y1="-445.318" x2="3474.25" y2="550.8209">
			<stop  offset="0" style="stop-color:#000000"/>
			<stop  offset="0.1737" style="stop-color:#474747"/>
			<stop  offset="0.3508" style="stop-color:#878787"/>
			<stop  offset="0.5121" style="stop-color:#BBBBBB"/>
			<stop  offset="0.6517" style="stop-color:#E0E0E0"/>
			<stop  offset="0.7642" style="stop-color:#F7F7F7"/>
			<stop  offset="0.8354" style="stop-color:#FFFFFF"/>
		</linearGradient>
		<path style="fill-rule:evenodd;clip-rule:evenodd;fill:url(#SVGID_00000021817415445781163330000003579745800966842265_);" d="
			M3333.054,616.859c324.718-330.689-18.308-1385.656,233.709-713.672c-348.375-980.253-37.795,184.489-236.41,714.256
			C3331.268,617.244,3332.171,617.048,3333.054,616.859z"/>
	</g>
	<g>
		<path style="fill-rule:evenodd;clip-rule:evenodd;fill:#FFFFFF;" d="M5917.252,123.006
			c-375.045-1017.165,47.874,175.872-301.293,531.463c199.65-42.805,251.235-311.593,271.542-484.056
			c31.833,40.218,71.071,71.573,118.695,82.756c-28.968-10.517-59.542-50.426-88.941-130.16L5917.252,123.006z"/>
		<path style="fill-rule:evenodd;clip-rule:evenodd;fill:#FFFFFF;" d="M5986.715-482.824
			c255.425,125.409,168.882,739.824,35.054,738.872c21.414,2.92,44.423,1.826,69.106-4.2
			c218.656-53.381,219.083-450.482,174.175-616.543c-116.546-430.971-608.846-308.155-768.731-12.301
			c151.964-146.983,381.317-173.161,490.395-105.823L5986.715-482.824z"/>
		<path style="fill-rule:evenodd;clip-rule:evenodd;fill:#FFFFFF;" d="M6021.77,256.048
			c128.834,0.922,213.847-568.471-7.881-722.849c139.866,174.46,7.352,630.389-115.625,538.358
			c6.087,16.482,12.415,33.628,18.987,51.446c29.4,79.733,59.973,119.643,88.941,130.16c5.093,1.197,10.29,2.163,15.576,2.882
			L6021.77,256.048z"/>
		<path style="fill-rule:evenodd;clip-rule:evenodd;fill:#FFFFFF;" d="M5615.957,654.466
			c324.718-330.689-18.308-1385.656,233.709-713.672c-348.375-980.253-37.794,184.489-236.41,714.256
			C5614.171,654.851,5615.073,654.655,5615.957,654.466z"/>
		<path style="fill-rule:evenodd;clip-rule:evenodd;fill:#FFFFFF;" d="M6065.529-150.859
			c18.322-113.338,8.627-240.768-51.637-315.944c-8.594-5.984-17.647-11.342-27.176-16.021
			c-79.083-48.818-221.376-48.486-351.57,11.399c218.855-91.447,409.779,73.029,430.455,262.877
			C6067.651-189.724,6067.505-170.31,6065.529-150.859z"/>
		
			<linearGradient id="SVGID_00000042723304055747857900000003178508793102599845_" gradientUnits="userSpaceOnUse" x1="5098.6582" y1="-1865.1863" x2="4846.1768" y2="-2236.8953" gradientTransform="matrix(0.542 0.8404 -0.8404 0.542 1553.7372 -3011.7144)">
			<stop  offset="0" style="stop-color:#000000"/>
			<stop  offset="0.1737" style="stop-color:#474747"/>
			<stop  offset="0.3508" style="stop-color:#878787"/>
			<stop  offset="0.5121" style="stop-color:#BBBBBB"/>
			<stop  offset="0.6517" style="stop-color:#E0E0E0"/>
			<stop  offset="0.7642" style="stop-color:#F7F7F7"/>
			<stop  offset="0.8354" style="stop-color:#FFFFFF"/>
		</linearGradient>
		<path style="fill-rule:evenodd;clip-rule:evenodd;fill:url(#SVGID_00000042723304055747857900000003178508793102599845_);" d="
			M6021.77,256.048c128.834,0.922,213.847-568.471-7.881-722.849c139.866,174.46,7.352,630.389-115.625,538.358
			c6.087,16.482,12.415,33.628,18.987,51.446c29.4,79.733,59.973,119.643,88.941,130.16c5.093,1.197,10.29,2.163,15.576,2.882
			L6021.77,256.048z"/>
		
			<linearGradient id="SVGID_00000104693376074203496760000016047415029813147326_" gradientUnits="userSpaceOnUse" x1="5336.9473" y1="-1338.7361" x2="4594.356" y2="-2050.5996" gradientTransform="matrix(0.542 0.8404 -0.8404 0.542 1553.7372 -3011.7144)">
			<stop  offset="0" style="stop-color:#000000"/>
			<stop  offset="0.1737" style="stop-color:#474747"/>
			<stop  offset="0.3508" style="stop-color:#878787"/>
			<stop  offset="0.5121" style="stop-color:#BBBBBB"/>
			<stop  offset="0.6517" style="stop-color:#E0E0E0"/>
			<stop  offset="0.7642" style="stop-color:#F7F7F7"/>
			<stop  offset="0.8354" style="stop-color:#FFFFFF"/>
		</linearGradient>
		<path style="fill-rule:evenodd;clip-rule:evenodd;fill:url(#SVGID_00000104693376074203496760000016047415029813147326_);" d="
			M5615.957,654.466c324.718-330.689-18.308-1385.656,233.709-713.672c-348.375-980.253-37.794,184.489-236.41,714.256
			C5614.171,654.851,5615.073,654.655,5615.957,654.466z"/>
	</g>
</g>
<g id="Layer_4">
</g>
</svg>
